<?xml version="1.0" standalone="no"?>
<!DOCTYPE svg PUBLIC "-//W3C//DTD SVG 20010904//EN"
 "http://www.w3.org/TR/2001/REC-SVG-20010904/DTD/svg10.dtd">
<svg version="1.0" xmlns="http://www.w3.org/2000/svg"
 width="300.000000pt" height="300.000000pt" viewBox="0 0 300.000000 300.000000"
 preserveAspectRatio="xMidYMid meet">
<metadata>
Created by potrace 1.11, written by Peter Selinger 2001-2013
</metadata>
<g transform="translate(0.000000,300.000000) scale(0.100000,-0.100000)"
fill="#000000" stroke="none">
<path d="M0 1500 l0 -1500 1500 0 1500 0 0 1500 0 1500 -1500 0 -1500 0 0
-1500z m1548 700 c126 -16 187 -43 258 -114 74 -75 106 -147 106 -246 0 -107
-58 -223 -133 -267 -37 -22 -36 -28 2 -44 65 -27 126 -86 161 -156 31 -63 33
-74 33 -168 -1 -80 -5 -111 -24 -158 -30 -76 -114 -167 -180 -196 -109 -46
-155 -53 -418 -58 l-253 -6 0 712 0 711 183 0 c100 0 220 -5 265 -10z"/>
<path d="M1310 1818 l0 -201 117 7 c139 8 185 20 228 61 83 78 62 250 -36 301
-31 15 -167 33 -261 34 l-48 0 0 -202z"/>
<path d="M1310 1205 l0 -228 140 6 c187 8 247 33 292 121 23 45 27 132 9 187
-6 19 -26 50 -44 67 -56 54 -97 65 -254 70 l-143 4 0 -227z"/>
</g>
</svg>
